<svg version="1.2" xmlns="http://www.w3.org/2000/svg" viewBox="0 0 210 100" width="210" height="100">
	<title>logo-svg</title>
	<style>
		.s0 { fill: #50b7e0 } 
	</style>
	<g id="Layer">
		<g id="svg_11">
			<g id="svg_9">
				<g id="svg_10">
					<path id="svg_13" fill-rule="evenodd" class="s0" d="m203 59.7c-1.7 8.6-5 16.6-9.7 23.1-4.7 6.4-10.6 11.1-16.9 13.5-6.3 2.4-12.9 2.4-19 0-6.2-2.3-11.5-7-15.6-13.4l-1.1-1.8c-5.6-9.8-7.9-22.5-6.4-35.3 1.6-12.8 6.8-24.5 14.6-32.5 7.8-8.1 17.5-11.7 26.8-10.1 9.3 1.6 17.5 8.3 22.7 18.6q0.7-0.9 1.4-1.9 0.6-1 1.3-2 0.6-1.1 1.1-2.1 0.6-1.1 1.1-2.2c1.9 18.8 2.4 34.4-0.3 46.1zm-56.6 21.3q0.2-0.7 0.3-1.5 0-0.8-0.1-1.5-0.2-0.8-0.6-1.4c-0.8-1.2-2-1.5-3.2-0.9-1.1 0.6-1.9 2-2.1 3.6-0.1 1.7 0.6 3.2 1.6 3.8 1.1 0.7 2.4 0.4 3.3-0.8q0.5-0.5 0.8-1.3zm55.9-62.6c-5 9.6-14.9 15.9-22.9 17-7.5 1.2-13.5-1.9-20.6 0.5-16.2 5.4-19.4 29.9-11.9 36.9l0.5 0.5c0 0 12.6-1.3 19.8-3.6 10.6-3.3 23.1-13.7 28.7-27.3-4 14.5-15.3 27.2-25.5 32.2-5.5 2.6-9.5 2.7-18.2 5.3-1.1 0.3-1.9 0.6-1.9 0.6 2.1 0 4.2 0.1 4.2 0.1 11.7 1.2 29.2 9.6 39.8-4.5 11-14.3 9.7-40.6 8-57.7z"/>
				</g>
			</g>
		</g>
		<g id="svg_6">
			<g id="svg_1">
				<path id="svg_2" fill-rule="evenodd" class="s0" d="m20.5 30.4c-0.4 0-0.5-0.2-0.3-0.6l2-3.5c0.2-0.4 0.7-0.7 1.1-0.7h34.7c0.4 0 0.5 0.4 0.3 0.8l-1.7 3.4c-0.2 0.4-0.7 0.7-1 0.7z"/>
				<path id="svg_3" fill-rule="evenodd" class="s0" d="m5.8 42.4c-0.4 0-0.5-0.3-0.3-0.7l2.1-3.5c0.2-0.4 0.7-0.6 1-0.6h44.3c0.4 0 0.6 0.3 0.5 0.7l-0.8 3.2c-0.1 0.5-0.5 0.7-0.8 0.7z"/>
				<path id="svg_4" fill-rule="evenodd" class="s0" d="m29.3 54.3c-0.4 0-0.5-0.4-0.3-0.8l1.4-3.2c0.2-0.4 0.6-0.8 1-0.8h19.4c0.4 0 0.6 0.4 0.6 0.9l-0.2 3.1c0 0.6-0.4 0.9-0.7 0.9z"/>
				<g id="svg_5">
					<path id="svg_8" fill-rule="evenodd" class="s0" d="m130.1 28.1c-6.1 2.1-10.3 3.6-16.3 5.7-1.5 0.5-1.6 0.6-2.8-1.3-1.5-2.2-2.5-3.6-4.6-4.9-6.1-4.1-12-2.9-17.6 1.9-6.6 5.7-10 14.2-9.9 24.7 0.1 10.4 5.5 18.9 13.1 20.4 6.7 1.1 12.2-2 16.6-8.6 0.8-1.4 1.6-3 2.6-4.8-3.5 0-7.9 0-18.8 0-2 0-2.5-1.7-1.8-3.9 1.3-4 3.6-10.8 4.9-14.2 0.3-0.7 1-2 2.5-2h35.3c-0.2 3.5-0.2 7-0.6 10.5-1 9.3-3.7 17.9-7.9 25.4-7 12.4-16.1 20-27.7 22.1-9.5 1.7-18.4-0.8-26.1-8.5-7.2-7.3-11.3-16.9-12.4-28.9-1.2-14.1 1.9-26.9 8.3-38 6.9-12.1 16-19.8 27.2-22.5 9.1-2.2 17.9-0.8 25.7 6.4 5.2 4.5 8.9 10.7 11.3 18.3 0.6 1.1 0.2 1.8-1 2.2z"/>
				</g>
			</g>
		</g>
	</g>
</svg>