<?xml version="1.0"?>
<svg width="200" height="100" xmlns="http://www.w3.org/2000/svg" xmlns:svg="http://www.w3.org/2000/svg" xmlns:xlink="http://www.w3.org/1999/xlink">
 <!-- Created with SVG-edit - https://github.com/SVG-Edit/svgedit-->
 <defs>
  <symbol height="78" id="svg_6" viewBox="0 0 207 78" width="207" xmlns="http://www.w3.org/2000/svg">
   <g fill="#50b7e0" fill-rule="evenodd" id="svg_1">
    <path d="m16.2,24.1c-0.4,0 -0.5,-0.2 -0.3,-0.5l2.1,-2.7c0.2,-0.3 0.7,-0.5 1.1,-0.5l35.7,0c0.4,0 0.5,0.3 0.3,0.6l-1.7,2.6c-0.2,0.3 -0.7,0.6 -1,0.6l-36.2,-0.1z" id="svg_2"/>
    <path d="m1.1,33.3c-0.4,0 -0.5,-0.2 -0.3,-0.5l2.1,-2.7c0.2,-0.3 0.7,-0.5 1.1,-0.5l45.6,0c0.4,0 0.6,0.3 0.5,0.6l-0.8,2.4c-0.1,0.4 -0.5,0.6 -0.9,0.6l-47.3,0.1z" id="svg_3"/>
    <path d="m25.3,42.5c-0.4,0 -0.5,-0.3 -0.3,-0.6l1.4,-2.5c0.2,-0.3 0.6,-0.6 1,-0.6l20,0c0.4,0 0.6,0.3 0.6,0.7l-0.2,2.4c0,0.4 -0.4,0.7 -0.7,0.7l-21.8,-0.1z" id="svg_4"/>
    <g id="svg_5" transform="translate(55)">
     <path d="m74.1,22.3c-6.3,1.6 -10.6,2.8 -16.8,4.4c-1.5,0.4 -1.6,0.5 -2.9,-1c-1.5,-1.7 -2.6,-2.8 -4.7,-3.8c-6.3,-3.1 -12.4,-2.2 -18.1,1.5c-6.8,4.4 -10.3,10.9 -10.2,19c0.1,8 5.6,14.6 13.5,15.7c6.8,0.9 12.5,-1.5 17,-6.6c0.9,-1.1 1.7,-2.3 2.7,-3.7c-3.6,0 -8.1,0 -19.3,0c-2.1,0 -2.6,-1.3 -1.9,-3c1.3,-3.1 3.7,-8.3 5.1,-10.9c0.3,-0.6 1,-1.6 2.5,-1.6l36.4,0c-0.2,2.7 -0.2,5.4 -0.6,8.1c-1.1,7.2 -3.8,13.8 -8.2,19.6c-7.2,9.5 -16.6,15.4 -28.5,17c-9.8,1.3 -18.9,-0.6 -26.9,-6.6c-7.4,-5.6 -11.6,-13 -12.7,-22.2c-1.3,-10.9 1.9,-20.7 8.5,-29.3c7.1,-9.3 16.5,-15.2 28,-17.3c9.4,-1.7 18.4,-0.6 26.5,4.9c5.3,3.5 9.1,8.3 11.6,14.1c0.6,0.9 0.2,1.4 -1,1.7z" id="svg_8"/>
    </g>
   </g>
  </symbol>
  <symbol id="svg_11" viewBox="0 0 97.1 97" xmlns="http://www.w3.org/2000/svg">
   <defs>
    <style>.cls-1{fill:#50b7e0;}</style>
   </defs>
   <title>spring-icon</title>
   <g data-name="Layer 2" id="svg_9">
    <g id="svg_10">
     <path class="cls-1" d="m88.4,5.6a42.32,42.32 0 0 1 -5.2,9.1a48.46,48.46 0 1 0 -67.7,69.3l1.8,1.6a48.41,48.41 0 0 0 79.5,-33.6c1.4,-12.2 -2.3,-27.8 -8.4,-46.4zm-65.9,78.8a4.12,4.12 0 1 1 -0.6,-5.8a4.21,4.21 0 0 1 0.6,5.8zm65.6,-14.5c-11.9,15.9 -37.5,10.5 -53.8,11.3c0,0 -2.9,0.2 -5.8,0.6c0,0 1.1,-0.5 2.5,-1c11.5,-4 16.9,-4.8 23.9,-8.4c13.1,-6.7 26.2,-21.4 28.8,-36.6c-5,14.6 -20.2,27.2 -34,32.3c-9.5,3.5 -26.6,6.9 -26.6,6.9l-0.7,-0.4c-11.6,-5.7 -12,-30.9 9.2,-39c9.3,-3.6 18.1,-1.6 28.2,-4c10.7,-2.5 23.1,-10.5 28.1,-21c5.6,16.9 12.4,43.1 0.2,59.3z" id="svg_13"/>
    </g>
   </g>
  </symbol>
 </defs>
 <g class="layer">
  <title>Layer 1</title>
  <use id="svg_12" transform="matrix(0.812728 0.0586214 -0.0623502 0.94898 87.37 -6.20711)" x="-8.54" xlink:href="#svg_11" y="2.85"/>
  <use fill="#50b7e0" id="svg_7" transform="matrix(1 0 0 1 0 0) matrix(0.970938 0 0 1.29887 -54.1262 -2.03311)" x="55.5" xlink:href="#svg_6" y="0.88"/>
 </g>
</svg>